<?xml version="1.0" encoding="UTF-8"?><svg id="Layer_1" xmlns="http://www.w3.org/2000/svg" viewBox="0 0 449.2 155.52"><defs><style>.cls-1{stroke-width:0px;}</style></defs><g id="tyger_logo"><path id="e" class="cls-1" d="m371.15,83.7c0-18.81-4.39-33.23-19.44-42.32-30.09-14.73-69.9-.31-68.65,38.24-.31,16.3,7.21,31.66,21,38.56,22.88,11.28,58.93,5.33,66.46-22.88h-30.09c-8.15,13.48-26.02,8.15-26.64-7.52h57.36v-4.08Zm-28.84-12.23h-28.21c.94-9.09,5.96-15.36,14.73-15.36,1.88,0,6.27.63,10.03,5.33,3.45,3.76,3.76,10.03,3.45,10.03Z"/><path id="t" class="cls-1" d="m45.14,61.13v28.53c-.94,13.48,9.4,9.09,17.24,4.7v25.39c-57.05,13.17-50.47-14.73-50.78-58.62H0v-24.76h11.6V14.42L45.14,0v36.36h26.02v24.76h-26.02Z"/><path id="y" class="cls-1" d="m179.93,36.68c-7.21,15.36-33.54,100.94-45.14,110.97-12.54,10.03-31.35,9.4-50.15,4.08v-25.39c10.34,6.27,26.02,9.72,30.41-5.64l-35.42-84.01h29.78c16.61,35.74,16.3,36.99,20.06,56.42,1.57,1.88,2.51-.31,2.51-2.51,3.45-22.26,18.18-54.86,17.87-53.92,0,0,30.09,0,30.09,0Z"/><path id="g" class="cls-1" d="m272.09,115.98V36.68h-26.02c0,5.64-.31,9.72,2.82,15.36,1.88,3.45,4.08,7.52.63,6.27-20.38-36.99-64.26-26.02-70.53,17.24-3.13,18.49,11.6,43.89,35.11,42.63,10.66.31,19.12-3.45,24.76-10.66,0,6.27.94,19.44-3.13,22.88-5.96,6.27-22.57,4.39-21.94-6.58h-32.29c-3.13,31.66,36.36,35.11,64.26,29.47,17.24-3.45,27.9-20.06,26.33-37.3Zm-53.92-22.88c-25.7-5.33-6.9-37.62,13.17-32.29,22.57,6.9,5.02,35.74-13.17,32.29Z"/><path id="r" class="cls-1" d="m449.2,39.81v28.84c-9.72-10.03-19.44-9.72-26.64-1.88-10.03,9.72-6.27,41.69-6.9,56.11h-33.54V36.05h26.02c-.31,5.02.63,10.97-3.76,17.55-.63.94-1.88,3.13-1.88,4.08,1.25,4.7,7.84-8.15,9.4-9.4,9.4-15.05,22.88-16.61,37.3-8.46Z"/></g></svg>